# xmcd CD database file
# Copyright (C) 1996 Ti Kan
#
# Track frame offsets:
#	225
#	23872
#	43692
#	64275
#	82403
#	121981
#	140879
#	167144
#	189358
#	211286
#	234515
#	266947
#	285465
#	299222
#	318534
# Disc length: 4456 seconds
#
# Revision: 1
# Processed by: cddbd v1.4PL0 Copyright (c) Steve Scherf et al.
# Submitted via: CDCOPY 4.744
#
DISCID=f911650f
DTITLE=Various Artist - New Age and New Sounds vol 90 - Daisy
DYEAR=1900
DGENRE=
TTITLE0=Sarah Jane Morris - Am I dreaming?
TTITLE1=Scott Wilkie - Home again
TTITLE2=Bruce Mitchell - Summer
TTITLE3=Artie Traum - Long journey
TTITLE4=Michel Petrucciani - Night sun in Blois
TTITLE5=Blue Room - Sapphire
TTITLE6=Patrick 'O Nearn - Faith and endurance
TTITLE7=Paul Mounsey - Another clearence
TTITLE8=Capitanata - Doors of universe
TTITLE9=Richard Galliano - Spleen
TTITLE10=Cleared to land - When I wake up
TTITLE11=The City of Prague Philarmonic - Lullabye
TTITLE12=Nap - Ghost
TTITLE13=Alberto Grollo
TTITLE14=Gabrielle Roth and The Mirrors - Red Wind
EXTD=
EXTT0=
EXTT1=
EXTT2=
EXTT3=
EXTT4=
EXTT5=
EXTT6=
EXTT7=
EXTT8=
EXTT9=
EXTT10=
EXTT11=
EXTT12=
EXTT13=
EXTT14=
PLAYORDER=
